<svg width="65" height="7" viewBox="0 0 65 7" fill="none" xmlns="http://www.w3.org/2000/svg">
<path d="M2 5.16667L4.43468 3.16262C5.94926 1.91593 8.14443 1.95156 9.61775 3.24675L10.1087 3.67832C11.619 5.00605 13.8803 5.00605 15.3906 3.67831L15.7963 3.32168C17.3067 1.99395 19.5679 1.99395 21.0783 3.32168L21.484 3.67832C22.9943 5.00605 25.2556 5.00605 26.7659 3.67831L27.1716 3.32168C28.6819 1.99395 30.9432 1.99395 32.4536 3.32169L32.8592 3.67832C34.3696 5.00605 36.6309 5.00605 38.1412 3.67831L38.5469 3.32168C40.0572 1.99395 42.3185 1.99395 43.8289 3.32168L44.2345 3.67832C45.7449 5.00605 48.0062 5.00605 49.5165 3.67831L49.9222 3.32168C51.4325 1.99395 53.6938 1.99395 55.2042 3.32168L55.6125 3.68063C57.1217 5.00738 59.3809 5.00849 60.8915 3.68325L63 1.83333" stroke="#2F70D9" stroke-width="3" stroke-linecap="round"/>
</svg>
